<svg xmlns="http://www.w3.org/2000/svg" viewBox="0 0 62.72 101.08"><defs><style>.cls-1{fill:#2c2a56;stroke:#2f748d;stroke-miterlimit:10;stroke-width:1.4px;}</style></defs><g id="Layer_2" data-name="Layer 2"><g id="Layer_1-2" data-name="Layer 1"><path class="cls-1" d="M17.64,40.88H22c9,0,15-4.76,15-11.2,0-5.88-5-9.94-12.18-9.94s-14.56,2.38-22,6.86V6.16A59.89,59.89,0,0,1,27.44.7C46.62.7,59.78,11.62,59.78,27.58c0,9.66-5.32,18.06-13.86,21.28A24.69,24.69,0,0,1,62,72.38c0,16.52-14.42,28-35.14,28a63.15,63.15,0,0,1-26.18-6V73.64c8,5,15.54,7.7,23,7.7,8.82,0,14.84-4.48,14.84-11.06,0-6.86-6.16-11.62-15.4-11.62H17.64Z"/></g></g></svg>