<?xml version="1.0" encoding="UTF-8"?>
<svg width="15px" height="16px" viewBox="0 0 15 16" version="1.1" xmlns="http://www.w3.org/2000/svg" xmlns:xlink="http://www.w3.org/1999/xlink">
    <title>LinkedIn icon</title>
    <path d="M14,0 L2,0 C1.175,0 0.5,0.675 0.5,1.5 L0.5,13.5 C0.5,14.325 1.175,15 2,15 L14,15 C14.825,15 15.5,14.325 15.5,13.5 L15.5,1.5 C15.5,0.675 14.825,0 14,0 Z M5,12.75 L2.75,12.75 L2.75,6 L5,6 L5,12.75 Z M3.875,4.725 C3.125,4.725 2.525,4.125 2.525,3.375 C2.525,2.625 3.125,2.025 3.875,2.025 C4.625,2.025 5.225,2.625 5.225,3.375 C5.225,4.125 4.625,4.725 3.875,4.725 Z M13.25,12.75 L11,12.75 L11,8.775 C11,8.175 10.475,7.65 9.875,7.65 C9.275,7.65 8.75,8.175 8.75,8.775 L8.75,12.75 L6.5,12.75 L6.5,6 L8.75,6 L8.75,6.9 C9.125,6.3 9.95,5.85 10.625,5.85 C12.05,5.85 13.25,7.05 13.25,8.475 L13.25,12.75 Z" id="Shape"></path>
</svg>