<?xml version="1.0" encoding="UTF-8"?>
<svg width="640px" height="100px" viewBox="0 0 640 100" version="1.1" xmlns="http://www.w3.org/2000/svg" xmlns:xlink="http://www.w3.org/1999/xlink">
    <title>Page 1</title>
            <polygon id="Path" fill="#F53E00" points="156.81 27.51 141.44 0 115.18 26.88 100.18 0.02 73.92 26.9 58.91 0.04 0 60.34 15.37 87.85 41.63 60.97 56.63 87.83 82.89 60.95 97.89 87.81"></polygon>
            <g id="text" transform="translate(187.730000, 16.340000)" fill="#000000">
                <polygon id="Path" points="49.74 6.02 31.58 40.99 31.47 40.77 13.42 6.02 1.42108547e-14 6.02 1.42108547e-14 63.14 11.3 63.14 11.3 24.92 27.19 54.97 35.13 54.97 51.18 24.42 51.18 63.14 62.58 63.14 62.58 6.02"></polygon>
                <path d="M106.46,17.87 L106.46,24.73 L106.23,24.35 C103.29,19.58 98.5,17.06 92.38,17.06 C79.87,17.06 71.13,26.72 71.13,40.55 C71.13,54.38 79.84,63.97 92.27,63.97 C97.9486228,64.127847 103.282103,61.2515775 106.27,56.42 L106.5,56.05 L106.5,63.15 L117.77,63.15 L117.77,17.87 L106.46,17.87 Z M94.69,54.41 C87.61,54.41 82.84,48.84 82.84,40.55 C82.84,32.09 87.46,26.61 94.61,26.61 C101.76,26.61 106.61,32.21 106.61,40.55 C106.61,48.89 101.81,54.41 94.67,54.41" id="Shape"></path>
                <rect id="Rectangle" x="128.55" y="17.87" width="11.3" height="45.28"></rect>
                <path d="M187.84,22.08 C184.711394,18.7718227 180.321501,16.9533087 175.77,17.08 C169.77,17.08 164.93,19.72 162.17,24.53 L161.93,24.95 L161.93,17.87 L150.63,17.87 L150.63,63.14 L161.93,63.14 L161.93,38.02 C161.93,31.02 165.59,26.77 171.72,26.77 C177.85,26.77 181.42,30.97 181.42,38.02 L181.42,63.14 L192.73,63.14 L192.73,36.38 C192.73,30.48 191.04,25.53 187.84,22.08" id="Path"></path>
                <path d="M270.93,17.06 C264.84,17.06 260,19.66 256.93,24.59 L256.69,24.97 L256.69,17.87 L245.38,17.87 L245.38,81.66 L256.69,81.66 L256.69,56.29 L256.93,56.66 C259.87,61.44 264.66,63.97 270.77,63.97 C283.28,63.97 292.02,54.3 292.02,40.47 C292.02,26.64 283.35,17.06 270.93,17.06 M268.54,54.41 C261.35,54.41 256.54,48.81 256.54,40.47 C256.54,32.13 261.32,26.66 268.45,26.66 C275.58,26.66 280.27,32.18 280.27,40.47 C280.27,48.76 275.65,54.32 268.51,54.41" id="Shape"></path>
                <path d="M321.83,17.06 C317.59,17.06 314,19.71 311.46,24.74 L311.22,25.22 L311.22,17.87 L299.91,17.87 L299.91,63.14 L311.27,63.14 L311.27,40.31 C311.27,30.74 316.27,28.73 320.39,28.73 C322.201402,28.7382807 323.979543,29.2172762 325.55,30.12 L325.55,18.12 C324.493957,17.335989 323.19192,16.9563761 321.88,17.05" id="Path"></path>
                <rect id="Rectangle" x="332.91" y="17.87" width="11.31" height="45.28"></rect>
                <path d="M392.2,22.08 C389.071394,18.7718227 384.681501,16.9533087 380.13,17.08 C374.13,17.08 369.3,19.72 366.54,24.53 L366.3,24.95 L366.3,17.87 L355,17.87 L355,63.14 L366.27,63.14 L366.27,38.02 C366.27,31.02 369.93,26.77 376.06,26.77 C382.19,26.77 385.76,30.97 385.76,38.02 L385.76,63.14 L397.06,63.14 L397.06,36.38 C397.06,30.48 395.37,25.53 392.17,22.08" id="Path"></path>
                <rect id="Rectangle" x="128.55" y="-8.8817842e-16" width="11.3" height="10.58"></rect>
                <rect id="Rectangle" x="332.91" y="-8.8817842e-16" width="11.31" height="10.58"></rect>
                <path d="M440.65,17.87 L440.65,25.15 L440.41,24.75 C437.41,19.75 432.48,17.06 426.16,17.06 C413.7,17.06 404.99,26.28 404.99,39.49 C404.99,50.95 411.4,59.49 421.12,61.66 C422.825628,62.0505029 424.570247,62.245095 426.32,62.24 C432.55,62.24 437.42,59.64 440.42,54.71 L440.65,54.32 L440.65,60.49 C440.65,69.17 434.37,72.49 428.98,72.72 C422.13,72.98 418.44,70.38 415.27,67.64 L408.54,74.53 C412.54,79.41 420.34,82.44 428.88,82.44 C436.04,82.44 441.98,80.22 446.08,76.04 C449.92,72.12 451.96,66.74 451.96,60.49 L451.96,17.87 L440.65,17.87 Z M440.65,41.62 C439.92,47.86 435.85,52.06 429.96,52.56 C429.57,52.56 429.17,52.56 428.76,52.56 C421.61,52.56 416.99,47.44 416.99,39.56 C416.99,31.68 421.64,26.56 428.84,26.56 C436.04,26.56 440.770033,31.76 440.770033,39.56 C440.771346,40.2451271 440.731273,40.9297091 440.65,41.61" id="Shape"></path>
                <path d="M237.74,49.89 C237.74,58.53 230.58,64.11 219.49,64.11 C213.16,64.11 205.38,62.11 201.1,58.24 C200.512794,57.7113238 199.980125,57.1250531 199.51,56.49 L203.97,51.93 L206.14,49.71 L206.19,49.71 C206.693837,50.3135416 207.245634,50.875371 207.84,51.39 C210.76842,53.8869957 214.481704,55.2746098 218.33,55.31 C222.33,55.31 226.41,53.64 226.41,50.84 C226.41,46.84 221.69,45.73 216.23,44.45 L214.92,44.15 C214.04,43.94 213.16,43.72 212.28,43.48 C205.99,41.76 200.16,38.97 200.16,30.75 C200.16,21.37 209.16,17.11 217.59,17.11 C224.38,17.11 229.35,18.61 233.33,21.94 C233.934626,22.4422276 234.508966,22.9798362 235.05,23.55 L232.63,26.02 L228.21,30.54 C227.62,29.94 227.05,29.4 226.49,28.93 C224.525511,27.0584835 221.932631,25.988519 219.22,25.93 C214.16,25.93 211.5,27.4 211.5,30.16 C211.5,33.52 215.2,34.69 219.8,35.77 L221.39,36.13 L222.49,36.38 C229.55,37.98 237.74,40.29 237.74,49.92" id="Path"></path>
            </g>
</svg>